# xmcd
#
# Track frame offsets:
#	150
#	21328
#	40440
#	64220
#	78743
#	94449
#	111108
#	125346
#	142927
#	160587
#	176595
#	197393
#	214388
#	236770
#	256423
#
# Disc length: 3681 seconds
#
# Revision: 0
# Processed by: cddbd v1.5.1PL0 Copyright (c) Steve Scherf et al.
# Submitted via: dBpowerAMP V4.0
#
DISCID=d70e5f0f
DTITLE=Various Artist - La Música de los Dioses, Vol.II [CD1]
DYEAR=2001
DGENRE=Ambient
TTITLE0=Eternia - Free body, Free Mind
TTITLE1=Red Rain - Don´t Give up
TTITLE2=Sygn - The Child In Us
TTITLE3=Hymn - El Bosque Encantado
TTITLE4=Lost Land - Voices
TTITLE5=Erhu - Voices of Africa
TTITLE6=Tanya - No More
TTITLE7=Wild Wind - Bitter Sweet Symphony
TTITLE8=Darkness Spirit - Theme From The Schindler´s List
TTITLE9=American Natives - Mother Natura
TTITLE10=Esmerald - Lascia Ch´io Pianga
TTITLE11=Freedom - Asian Child
TTITLE12=Inmagic - Tiny Little Thing
TTITLE13=Alea - Love Song for a Vampire
TTITLE14=Noe´s Ark - You´re the Voice
EXTD=
EXTT0=
EXTT1=
EXTT2=
EXTT3=
EXTT4=
EXTT5=
EXTT6=
EXTT7=
EXTT8=
EXTT9=
EXTT10=
EXTT11=
EXTT12=
EXTT13=
EXTT14=
PLAYORDER=
